<svg xmlns="http://www.w3.org/2000/svg" width="74.97" height="78.16" viewBox="0 0 74.97 78.16">
  <defs>
    <style>
      .cls-1 {
        fill-rule: evenodd;
        fill: #1dbbae;
      }
    </style>
  </defs>
  <path id="ampoule" class="cls-1" d="M1787.16,3711.88c-2.87,0-5.75.01-8.63,0-1.6,0-2.23-.6-2.17-2.22a10.763,10.763,0,0,0-1.47-5.72c-1.11-1.99-2.32-3.92-3.47-5.89-1.85-3.15-3.43-6.41-3.73-10.13-0.67-8.18,2.48-14.59,9.38-18.83,11.63-7.15,26.65-.07,29.03,13.49a17.827,17.827,0,0,1-1.52,10.99c-1.22,2.55-2.65,4.99-3.99,7.48-1.22,2.26-2.46,4.52-2.66,7.16-0.04.52-.05,1.03-0.06,1.55-0.02,1.52-.58,2.11-2.08,2.12C1792.92,3711.89,1790.04,3711.88,1787.16,3711.88Zm7.21-3.57c0.27-3.7,1.96-6.84,3.72-9.95a45.809,45.809,0,0,0,2.5-4.55,25.192,25.192,0,0,0,2.15-6.35,15.9,15.9,0,1,0-30.5,4.32,67.127,67.127,0,0,0,4.36,8.03c1.52,2.65,3,5.31,3.24,8.5h14.53Zm-7.25,7.39c2.46,0,4.92-.01,7.38,0,1.3,0,2.1.65,2.12,1.71a1.8,1.8,0,0,1-2.07,1.76H1779.7c-1.31,0-2.05-.65-2.04-1.76s0.74-1.71,2.08-1.71C1782.2,3715.69,1784.66,3715.7,1787.12,3715.7Zm0,10.43c-1.53,0-3.06.02-4.59,0a1.732,1.732,0,1,1-.04-3.46q4.635-.03,9.27,0a1.734,1.734,0,0,1,1.82,1.7,1.76,1.76,0,0,1-1.87,1.76C1790.18,3726.15,1788.65,3726.14,1787.12,3726.13Zm-26-12.15a5.967,5.967,0,0,1-1.33-1.16,1.594,1.594,0,0,1,.32-2.03c1.62-1.73,3.25-3.45,4.88-5.18,0.4-.42.79-0.84,1.2-1.25,0.94-.96,1.88-1.07,2.68-0.32s0.73,1.81-.2,2.79c-1.93,2.05-3.88,4.1-5.82,6.14a1.938,1.938,0,0,1-.41.4C1762.09,3713.56,1761.71,3713.71,1761.12,3713.98Zm53.78-54.41a7.336,7.336,0,0,1-.86,1.48q-3.045,3.135-6.14,6.21a1.711,1.711,0,0,1-2.62.07,1.745,1.745,0,0,1,.18-2.57c2.04-2.08,4.1-4.14,6.15-6.21a1.554,1.554,0,0,1,1.99-.42A6.793,6.793,0,0,1,1814.9,3659.57Zm-26.18-5.43c0,1.35.02,2.7,0,4.05a1.777,1.777,0,1,1-3.52,0c-0.01-2.74-.02-5.47,0-8.21a1.773,1.773,0,1,1,3.52.01C1788.75,3651.37,1788.72,3652.75,1788.72,3654.14Zm-19.21,12.34a8.192,8.192,0,0,1-1.34,1.4,1.483,1.483,0,0,1-1.91-.4c-1.32-1.3-2.62-2.63-3.93-3.94-0.67-.69-1.36-1.35-2.02-2.05a1.751,1.751,0,1,1,2.49-2.45c1.97,1.96,3.94,3.93,5.87,5.94A7.267,7.267,0,0,1,1769.51,3666.48Zm37.05,37a7.563,7.563,0,0,1,1.46.87q2.985,2.925,5.89,5.93a1.736,1.736,0,0,1,.08,2.57,1.7,1.7,0,0,1-2.55-.12c-1.97-1.96-3.92-3.95-5.88-5.93a1.534,1.534,0,0,1-.42-2A7.567,7.567,0,0,1,1806.56,3703.48Zm12.24-19.33c1.34,0,2.68-.02,4.01,0a1.7,1.7,0,0,1,1.86,1.74,1.736,1.736,0,0,1-1.88,1.74c-2.67.01-5.35,0.01-8.02,0a1.75,1.75,0,1,1,.01-3.48C1816.12,3684.14,1817.46,3684.15,1818.8,3684.15Zm-63.24,3.49c-1.31,0-2.62.01-3.93-.01a1.75,1.75,0,1,1,.01-3.48q3.93-.015,7.86,0a1.7,1.7,0,0,1,1.87,1.74,1.726,1.726,0,0,1-1.88,1.74C1758.19,3687.65,1756.88,3687.64,1755.56,3687.64Zm19.63-2a11.775,11.775,0,0,1,19.9-8.62,1.754,1.754,0,0,1,.36,2.56,1.7,1.7,0,0,1-2.68.04,8.335,8.335,0,0,0-13.2,2.2,8.205,8.205,0,0,0,1.1,9.28c1.17,1.23.99,2.54,0.28,3.11-0.92.74-1.91,0.47-3-.84A11.779,11.779,0,0,1,1775.19,3685.64Z" transform="translate(-1749.69 -3648)"/>
</svg>
