<svg xmlns="http://www.w3.org/2000/svg" width="197.97" height="194.97" viewBox="0 0 197.97 194.97">
  <defs>
    <style>
      .cls-1 {
        fill: #1dbbae;
        fill-rule: evenodd;
      }
    </style>
  </defs>
  <path id="billetterie" class="cls-1" d="M1347.94,4975.43a45.529,45.529,0,0,0,4.48-1.55c4.57-2.1,8.76-.83,11.16,3.57q11.64,21.3,23.2,42.63c2.39,4.41,1.2,8.67-3.07,11.28-5.95,3.63-7.91,10.15-4.93,16.39,2.24,4.69.98,8.8-3.56,11.27q-54.93,29.865-109.88,59.7c-4.56,2.48-8.66,1.32-11.41-3.14a12.344,12.344,0,0,0-16.3-4.86c-4.83,2.3-8.86,1.03-11.4-3.63-4.61-8.44-9.19-16.9-13.83-25.32a9.327,9.327,0,0,0-2.1-2.57c-4.56-3.82-9.17-7.57-13.78-11.32-4.31-3.52-4.84-7.58-1.57-12.12a12.21,12.21,0,0,0-1.67-16.61c-4.01-3.68-4.35-7.84-.88-12.06q39.48-48.09,78.99-96.16a7.843,7.843,0,0,1,11.21-1.33c5.93,4.36,12.49,3.69,17.44-1.76a7.755,7.755,0,0,1,11.1-.91q18.9,15.435,37.74,30.94c3.85,3.17,4.21,7.39,1.38,11.48a46.992,46.992,0,0,0-2.87,5.5Zm-80.64,115.32c0.19,0.13.37,0.26,0.56,0.4a18.654,18.654,0,0,1,1.31-2.04q11.895-14.52,23.81-29.02,26.985-32.835,53.99-65.67c1.11-1.35,1.32-2.16-.15-3.51a18.89,18.89,0,0,1-2.61-24.89c1.42-2.03,1.43-2.05-.56-3.68q-18-14.775-35.98-29.54c-1.32-1.1-2.11-.96-3.25.27a18.83,18.83,0,0,1-25.2,2.43c-1.41-1.03-2.15-.86-3.2.43q-39.03,47.61-78.14,95.14c-1.03,1.26-1.17,2.02.13,3.24,7.37,6.91,8.32,17.24,2.37,25.47-0.87,1.19-.77,1.87.34,2.77q18.465,15.075,36.87,30.23c1.07,0.88,1.72.76,2.65-.22,7.27-7.6,17.06-8.54,25.8-2.56C1266.44,5090.27,1266.88,5090.5,1267.3,5090.75Zm81.31-108.32a44.719,44.719,0,0,0,3.26,3.91c3.75,3.61,4.08,7.81.78,11.82-2.66,3.24-5.27,6.52-8,9.7a2.056,2.056,0,0,0-.23,2.78c4.52,8.2,8.98,16.44,13.46,24.67,3.03,5.59,1.57,10.49-4.03,13.54q-36.66,19.9-73.32,39.79a20.78,20.78,0,0,0-6.75,5.47c-3.21,4.1-7.5,4.51-11.7,1.42a12.259,12.259,0,0,0-16.79,1.56q-5.685,6.1-12.21.74-3.375-2.76-6.75-5.5c1.74,3.88,3.76,7.51,5.68,11.2,0.73,1.41,1.44,1.65,2.94.94a18.969,18.969,0,0,1,24.47,7.1c0.98,1.56,1.76,1.68,3.29.85q54.33-29.58,108.72-59.06c1.49-.8,1.74-1.55,1.03-3.09a18.894,18.894,0,0,1,7.21-24.41c1.44-.9,1.69-1.62.85-3.12-3-5.33-5.87-10.73-8.8-16.11q-6.945-12.75-13.89-25.51c-0.48-.89-0.85-1.76-2.26-1.18C1353.41,4980.84,1351.15,4981.53,1348.61,4982.43Zm-9.66,32.4-50.22,61.15a1.151,1.151,0,0,0,.99-0.07q30.645-16.635,61.26-33.27c1.79-.97,2.04-1.97,1.02-3.85q-4.38-8.07-8.79-16.12C1341.84,5020.15,1340.48,5017.64,1338.95,5014.83Zm-126.32,19.97c0.86-1.82,1.39-3.9,2.62-5.41q30.99-37.935,62.15-75.73c3.76-4.58,8.9-5.05,13.53-1.27q18.675,15.255,37.3,30.59c4.41,3.62,4.96,8.8,1.33,13.23q-25.395,30.99-50.85,61.93-5.6,6.81-11.2,13.63c-3.58,4.37-8.91,4.93-13.26,1.38q-18.585-15.225-37.18-30.45c-2.45-2-4.07-4.38-3.95-7.68C1212.95,5034.95,1212.79,5034.87,1212.63,5034.8Zm71.89-78.37a14.54,14.54,0,0,0-1.99,1.7q-30.72,37.32-61.38,74.67c-1.91,2.33-1.85,2.92.55,4.88q18.135,14.895,36.29,29.76c2.2,1.81,2.9,1.71,4.76-.56q6.54-7.98,13.1-15.96,24.12-29.37,48.24-58.73c1.46-1.78,1.39-2.72-.3-4.11q-18.585-15.24-37.18-30.45A16.264,16.264,0,0,0,1284.52,4956.43Zm-1.48,44.65c0,1.81.06,3.62-.02,5.43a2.24,2.24,0,0,0,1.58,2.44c3.28,1.37,6.57,2.73,9.79,4.25a3.05,3.05,0,0,1,1.72,2c-0.02.65-1.11,1.54-1.91,1.81-3.35,1.17-6.76,2.2-10.18,3.19a2.173,2.173,0,0,0-1.85,2.18c-0.28,3.49-.71,6.96-1.07,10.44-0.12,1.13-.16,2.56-1.53,2.62a3.684,3.684,0,0,1-2.42-1.57c-2.05-2.76-3.96-5.62-5.87-8.48a2.256,2.256,0,0,0-2.8-1.13c-3.33.83-6.71,1.47-10.07,2.16-1.13.23-2.37,0.79-3.23-.53-0.84-1.29.22-2.09,0.88-2.95,2.02-2.63,3.99-5.3,6.12-7.83a2.673,2.673,0,0,0,.19-3.67c-1.88-2.95-3.66-5.97-5.35-9.03-0.39-.7-0.62-2.13-0.25-2.46a3.188,3.188,0,0,1,2.63-.4c3.39,1.05,6.75,2.25,10.07,3.51a2.5,2.5,0,0,0,3.26-.82c2.19-2.65,4.43-5.27,6.78-7.78a8.773,8.773,0,0,1,2.59-1.32,10.4,10.4,0,0,1,1.14,2.69,51.028,51.028,0,0,1,.05,5.25h-0.25Z" transform="translate(-1190.03 -4925.03)"/>
</svg>
