<svg xmlns="http://www.w3.org/2000/svg" width="149.032" height="119.94" viewBox="0 0 149.032 119.94">
  <defs>
    <style>
      .cls-1 {
        fill: #d4915a;
        fill-rule: evenodd;
      }
    </style>
  </defs>
  <path id="brochures" class="cls-1" d="M696.28,6234.78c-15.913-5.85-31.8-11.75-47.724-17.58a3.842,3.842,0,0,0-2.479.1c-15.184,5.57-30.345,11.2-45.533,16.76a4.346,4.346,0,0,1-2.76.03c-10.713-3.9-21.4-7.87-32.089-11.82-5.616-2.08-11.231-4.15-17.089-6.32v1.26q0,49.035-.031,98.06a1.679,1.679,0,0,0,1.384,1.83q23.457,8.625,46.885,17.33a5.635,5.635,0,0,0,4.214-.01q22.55-8.34,45.146-16.55a3.906,3.906,0,0,1,2.46.01c12.765,4.66,25.507,9.4,38.256,14.11,3.507,1.29,7.02,2.57,10.658,3.91v-1.48q0-48.9.026-97.78A1.669,1.669,0,0,0,696.28,6234.78Zm-99.517,93.48v1.24c-0.58-.17-1.023-0.27-1.445-0.43q-20.561-7.59-41.123-15.19a1.389,1.389,0,0,1-1.194-1.49q0.051-44.625.03-89.26c0-.19.03-0.39,0.061-0.75,7.243,2.68,14.321,5.29,21.4,7.91,7.035,2.6,14.063,5.22,21.114,7.78a1.5,1.5,0,0,1,1.178,1.67Q596.748,6284.005,596.763,6328.26Zm46.835-14.19q-20.376,7.455-40.713,15.02c-0.448.16-.914,0.28-1.581,0.48v-1.71q0-43.89-.023-87.78a1.936,1.936,0,0,1,1.494-2.21c13.553-4.91,27.08-9.9,40.616-14.86,0.536-.2,1.089-0.35,1.772-0.57v1.73q0,43.815.034,87.64A2.008,2.008,0,0,1,643.6,6314.07Zm49.568,14.17v1.24c-0.57-.2-1.011-0.34-1.446-0.5q-20.346-7.53-40.7-15.04a1.652,1.652,0,0,1-1.325-1.84q0.048-44.115.025-88.22v-1.49c3.639,1.34,7.107,2.6,10.569,3.88q15.759,5.82,31.522,11.64a1.68,1.68,0,0,1,1.388,1.83Q693.137,6283.99,693.166,6328.24Z" transform="translate(-548.562 -6215.97)"/>
</svg>
