<svg xmlns="http://www.w3.org/2000/svg" width="484.031" height="484" viewBox="0 0 484.031 484">
  <defs>
    <style>
      .cls-1 {
        fill: #d4915a;
        fill-rule: evenodd;
      }
    </style>
  </defs>
  <path id="carte_complete" data-name="carte complete" class="cls-1" d="M250.4,8C384.259,8.182,494.923,118.1,491.973,255.254c-2.855,132.751-111.8,237.5-243.18,236.735C112.426,491.2,4.5,378.227,8.083,243.552,11.546,113.308,118.631,7.806,250.4,8ZM23.316,249.614C23.042,372.967,122.586,476.6,250.06,476.664c126.415,0.061,226.4-102.453,226.656-226.106,0.258-124.545-99.78-225.24-222.788-227.2C125.92,21.307,23.441,124.7,23.316,249.614Zm424.145-.272c0,108.606-88.856,197.282-197.207,196.808-109.1-.477-196.444-88.519-196.392-197.966C53.912,140.961,142.7,52.513,250.205,52.6,359.242,52.687,447.46,140.676,447.46,249.342ZM250.718,67.818C150.6,68.056,70.32,148.635,69.183,247.4,68.04,346.635,148.249,429.369,247.16,430.83c100.652,1.488,183.521-78.585,184.988-178.5A181.88,181.88,0,0,0,250.718,67.818Zm-88.474,268.89c3.793-7.461,7.376-14.553,11-21.628,12.019-23.478,24.086-46.931,36.021-70.453,1.131-2.23,2.314-3.137,4.885-3.093,9.7,0.168,19.4.068,29.535,0.068,0-5.811-.038-11.376.012-16.939,0.044-4.894-1.436-10.758.75-14.4,2.1-3.5,8.015-4.733,12.3-6.876q39.221-19.642,78.461-39.243c1.094-.547,2.218-1.031,4.077-1.892-4.093,8.034-7.828,15.391-11.585,22.735-11.806,23.074-23.671,46.117-35.363,69.246-1.339,2.648-2.836,3.532-5.754,3.457-8.229-.216-16.467-0.083-24.7-0.068-1.226,0-2.452.1-3.932,0.17-0.068,1.461-.172,2.684-0.175,3.907-0.014,8.349.066,16.7-.091,25.044a4.581,4.581,0,0,1-1.832,3.453q-46.051,23.209-92.222,46.182A8.673,8.673,0,0,1,162.244,336.708Zm96.668-94.446c7.326,0,14.271.07,21.21-.1,0.756-.019,1.711-1.291,2.181-2.187,3.867-7.38,7.652-14.805,11.442-22.226,3.455-6.763,6.885-13.54,10.415-20.489a3.29,3.29,0,0,0-.928.009q-21.3,10.607-42.572,21.28a3.261,3.261,0,0,0-1.673,2.207C258.86,227.809,258.912,234.866,258.912,242.262ZM242.3,256.932c-6.749,0-13.025.092-19.3-.05-2.18-.05-3.243.83-4.174,2.671-6.691,13.227-13.478,26.405-20.216,39.608-0.417.818-.67,1.721-1.291,3.348,15.07-7.542,29.341-14.665,43.572-21.865a2.824,2.824,0,0,0,1.345-2.035C242.341,271.549,242.3,264.488,242.3,256.932Zm-100.247,0c-7.192,0-14.384.026-21.576-.011-5.031-.025-8.392-3-8.488-7.414-0.093-4.354,3.2-7.8,8.177-7.842q21.744-.2,43.493.007c5.095,0.052,8.12,3.3,8.048,7.865s-3.2,7.356-8.421,7.384C156.212,256.959,149.134,256.931,142.056,256.931Zm216.052,0c-7.079,0-14.157.02-21.235-.008-5.105-.02-8.448-2.857-8.65-7.254-0.2-4.454,3.208-7.97,8.359-8.014q21.576-.186,43.153,0c5.248,0.046,8.376,3.367,8.221,8.064-0.149,4.5-3.321,7.181-8.614,7.2C372.264,256.951,365.186,256.931,358.108,256.931ZM257.451,352.7c0,7.422.109,14.845-.045,22.263a7.383,7.383,0,0,1-6.506,7.23,7.511,7.511,0,0,1-8.138-4.883,10.145,10.145,0,0,1-.537-3.344c-0.035-14.388-.074-28.776,0-43.162,0.027-5.033,3.18-8.306,7.616-8.315s7.57,3.241,7.646,8.288c0.109,7.307.028,14.616,0.028,21.923h-0.067ZM258.9,144.025c0,7.078.044,14.157-.015,21.236-0.042,5.09-3,8.324-7.491,8.373-4.65.051-7.7-3.271-7.7-8.516q-0.033-21.408,0-42.814c0.011-4.965,3.111-8.392,7.5-8.446,4.41-.055,7.643,3.323,7.689,8.247C258.95,129.411,258.9,136.719,258.9,144.025Z" transform="translate(-8 -8)"/>
</svg>
