<svg xmlns="http://www.w3.org/2000/svg" width="36" height="46" viewBox="0 0 36 46">
  <defs>
    <style>
      .cls-1 {
        fill-rule: evenodd;
      }
    </style>
  </defs>
  <path id="chateau" class="cls-1" d="M2521.53,1702.18h-3.99a1.315,1.315,0,0,1-1.54-1.55v-14.07a1.322,1.322,0,0,1,1.53-1.56h6.23a1.307,1.307,0,0,1,1.46,1.49c0.01,1.63.01,3.26,0.01,4.89a0.892,0.892,0,0,0,.02.11h3.69v-5.05a1.3,1.3,0,0,1,1.44-1.44h7.18a1.3,1.3,0,0,1,1.43,1.44v5.06h3.7c0.01-.15.02-0.29,0.02-0.43,0-1.52,0-3.05.01-4.58a1.3,1.3,0,0,1,1.45-1.49h6.39a1.287,1.287,0,0,1,1.44,1.46v14.26a1.28,1.28,0,0,1-1.43,1.46h-4.18c0.08,0.89.16,1.73,0.25,2.58,0.24,2.45.49,4.89,0.73,7.34,0.28,2.72.55,5.43,0.82,8.15q0.36,3.63.72,7.27c0.07,0.66.14,1.33,0.22,2a1.254,1.254,0,0,1-1.22,1.47c-0.11.01-.23,0.01-0.34,0.01H2520.2a1.248,1.248,0,0,1-1.35-1.46c0.18-1.98.38-3.96,0.58-5.95,0.24-2.46.49-4.92,0.73-7.38,0.27-2.73.55-5.46,0.82-8.19q0.27-2.82.56-5.64C2521.54,1702.33,2521.53,1702.28,2521.53,1702.18Zm5.84,26.24v-0.49c0-2.9-.04-5.8.02-8.7a6.616,6.616,0,0,1,13.23.23c0.02,2.84.01,5.67,0.01,8.51v0.45h5.87c-0.13-1.35-.26-2.68-0.39-4l-0.81-8.19c-0.24-2.46-.49-4.92-0.73-7.38q-0.39-3.885-.77-7.77a1.265,1.265,0,0,1,1.35-1.46h4.3v-12.04h-4.15v0.45c0,1.54.01,3.08,0,4.62a1.283,1.283,0,0,1-1.4,1.43h-5.96a1.283,1.283,0,0,1-1.41-1.42v-5.07h-4.99v5.04a1.3,1.3,0,0,1-1.43,1.45h-5.92a1.286,1.286,0,0,1-1.43-1.44v-5.06h-4.21v12.04h4.18a1.317,1.317,0,0,1,1.45,1.63c-0.07.68-.14,1.36-0.22,2.08h0.44c1.09,0,2.18,0,3.26.01a1.276,1.276,0,1,1,.02,2.55c-0.87.01-1.74,0-2.62,0h-1.36c-0.08.87-.16,1.69-0.25,2.56h1.71a1.275,1.275,0,1,1,.05,2.55c-0.58.02-1.16,0.01-1.73,0a0.261,0.261,0,0,0-.32.28c-0.17,1.87-.36,3.74-0.54,5.6-0.24,2.49-.49,4.97-0.73,7.46-0.13,1.35-.26,2.7-0.4,4.08h5.88Zm10.72,0c0-.13.01-0.22,0.01-0.31v-8.55a4.023,4.023,0,0,0-1.58-3.34,3.875,3.875,0,0,0-4.3-.45,3.921,3.921,0,0,0-2.32,3.73c-0.02,2.87,0,5.75,0,8.62,0,0.1.02,0.2,0.03,0.3h8.16Z" transform="translate(-2516 -1685)"/>
</svg>
