<svg xmlns="http://www.w3.org/2000/svg" width="132" height="86" viewBox="0 0 132 86">
  <defs>
    <style>
      .cls-1 {
        fill: #d4925b;
        fill-rule: evenodd;
      }
    </style>
  </defs>
  <path id="enveloppe" class="cls-1" d="M2960.94,6232h62.89c2.2,0,3.17.94,3.17,3.14v79.78c0,2.17-1.03,3.14-3.21,3.08q-0.96-.03-1.92-0.03H2899.2c-3.72.03-4.2-.46-4.2-4.28v-78.14c0-2.74.82-3.55,3.5-3.55q31.215,0.015,62.44.01V6232Zm-55.69,80.5h111.5c-14.67-12.16-29.08-24.09-43.53-36.07-3.47,2.61-6.86,5.17-10.27,7.7a2.808,2.808,0,0,1-3.9.01c-1.27-.94-2.53-1.9-3.8-2.85-2.16-1.62-4.32-3.23-6.48-4.85C2934.27,6288.45,2919.89,6300.37,2905.25,6312.5Zm110.94-75.02H2905.8c18.58,13.94,36.86,27.66,55.2,41.42C2979.34,6265.14,2997.62,6251.42,3016.19,6237.48Zm5.43,2.62c-14.76,11.08-29.31,22-44,33.03,14.72,12.2,29.27,24.25,44,36.46V6240.1Zm-77.25,33.03c-14.75-11.08-29.27-21.98-43.91-32.97v69.36C2915.16,6297.34,2929.68,6285.3,2944.37,6273.13Z" transform="translate(-2895 -6232)"/>
</svg>
