<svg xmlns="http://www.w3.org/2000/svg" width="187" height="172" viewBox="0 0 187 172">
  <defs>
    <style>
      .cls-1 {
        fill: #1dbbae;
        fill-rule: evenodd;
      }
    </style>
  </defs>
  <path id="famille" class="cls-1" d="M2308.15,5049.49c0,3.88.01,7.53,0,11.18a40.076,40.076,0,0,1-35.69,40.05c-20.64,2.51-40.66-12.5-43.72-33.04-0.76-5.03-.67-10.2-0.97-15.45-2.88-.44-5.98-0.81-9.03-1.4-20.82-4.09-38.15-22.23-40.57-43.24-1.44-12.56-1.86-25.32.55-37.79,2.05-10.67,7.66-19.8,15.84-27.16a51.878,51.878,0,0,1,80.8,13.76c0.38,0.69.77,1.37,1.22,2.17a46.324,46.324,0,0,1,22.6-16.11c26.7-8.72,55.63,8.71,59.82,36.28a93.644,93.644,0,0,1,.58,16.33c-0.25,9.38,1.52,18.54,2.58,27.78,0.52,4.55,1.23,9.09,1.76,13.64,0.3,2.58-.26,3.44-2.64,4.52-4.35,1.97-9.01,2.4-13.69,2.58-3.4.13-6.82-.05-10.23-0.06a3.261,3.261,0,0,0-1.53.27C2327.29,5048.61,2318.09,5050.22,2308.15,5049.49Zm-33.99-37.86a66.2,66.2,0,0,0,1.1-7.52c0.23-6.52.2-13.04,0.33-19.56a56.229,56.229,0,0,0-1.92-16.38,38.968,38.968,0,0,0-6.28-13.32c-0.35.21-.65,0.35-0.91,0.54a79.729,79.729,0,0,1-25.15,11.98c-16.46,4.81-33.31,6.17-50.37,5.64-2.12-.06-4.23,0-6.47,0a28.368,28.368,0,0,0-.4,3.27c-0.12,8.25-.57,16.52-0.19,24.75,0.89,18.89,10.15,32.5,27.27,40.71a41.968,41.968,0,0,0,17.07,3.95c1.95-5.5,3.82-10.78,5.7-16.1,0.19,0.09.07-.01-0.05-0.02-0.53-.04-1.07-0.06-1.6-0.08a36.314,36.314,0,0,1-19.67-5.92,4.037,4.037,0,0,1-1.86-2.37,4.333,4.333,0,0,1,1.19-3.08c1.13-1.12,2.56-.69,3.85.15a31.261,31.261,0,0,0,22.81,4.57,6.947,6.947,0,0,0,3.16-1.46c6.65-5.51,14.14-9.06,22.83-9.71C2267.64,5011.44,2270.71,5011.63,2274.16,5011.63Zm5.86,1.5a5.309,5.309,0,0,0,.49.38,5.422,5.422,0,0,0,.56.22c13.5,4.88,22.05,14.27,25.92,27.99a2.272,2.272,0,0,0,1.59,1.21c19.04,2.7,38.01-9.75,43.38-28.4,2.69-9.34,1.31-18.9,1.53-28.37a0.688,0.688,0,0,0-.22-0.31c-13.05-1.61-21.8-9.2-28.03-20.12a2.856,2.856,0,0,0-.54.16c-11.8,8.61-25.36,12.49-39.59,14.58-3.2.47-3.15,0.41-3.22,3.64C2281.67,4993.79,2282.82,5003.55,2280.02,5013.13Zm20.34,26.62h-2.63c-19.66,0-39.32.04-58.97-.05-2-.01-2.83.61-3.27,2.46a64.389,64.389,0,0,0-.79,23.59c2.15,16.05,15.8,27.96,32.15,28.65a33.931,33.931,0,0,0,34.15-25.62c1.62-6.62,1.2-13.36.87-20.05A74.483,74.483,0,0,0,2300.36,5039.75Zm-113.79-73.24a14.144,14.144,0,0,0,1.58.11c9.21-.26,18.44-0.23,27.63-0.87a108.873,108.873,0,0,0,31.9-7.15,58.154,58.154,0,0,0,15.84-8.7c-9.78-11.32-27.77-18.16-45.96-13.25C2202.87,4940.62,2187.81,4955.08,2186.57,4966.51Zm94.94,8.12a14.921,14.921,0,0,0,1.51-.01,89.533,89.533,0,0,0,25.09-6.42c7.85-3.3,14.94-7.7,20.36-14.4,0.86-1.06,1.6-2.2,2.48-3.43a38.461,38.461,0,0,0-21.08-3.85c-12.68,1.33-22.52,7.34-29.65,17.79a2.967,2.967,0,0,0-.46,2.02C2280.25,4969.06,2280.89,4971.76,2281.51,4974.63Zm15.57,59.48c-4.42-9.53-19.34-17.36-30.88-16.33s-20.42,6.37-26.92,16.33h57.8Zm32.87-72.81c5.33,10.73,16.07,19.13,22.84,17.77-2.19-10.74-7.53-19.4-16.55-25.67C2334.11,4956.08,2332.08,4958.63,2329.95,4961.3Zm26.16,61.51c-3.57,4.82-7.16,9.68-10.72,14.5,4.13-.01,8.41-0.19,12.47-1.69Q2356.93,5028.855,2356.11,5022.81Zm-123.84-16.91c2.39,0,4.58-.06,6.76.02,2.32,0.08,3.98,2.02,3.11,3.78a3.694,3.694,0,0,1-2.47,1.91c-3.67.21-7.36,0.15-11.03,0.05a2.2,2.2,0,0,1-2.33-2.44c0.03-5.59.03-11.18,0.03-16.77,0.01-1.73.72-3.22,2.45-3.35,1.01-.07,2.25.8,3.09,1.56,0.45,0.41.37,1.5,0.37,2.28C2232.28,4997.18,2232.27,5001.42,2232.27,5005.9Zm-24.81-6.6a6.281,6.281,0,1,1,6.28-6.24A6.416,6.416,0,0,1,2207.46,4999.3Zm40.9-6.26a6.25,6.25,0,1,1,6.17,6.26A6.237,6.237,0,0,1,2248.36,4993.04Zm67.44,14.61c2.13,0,3.99-.03,5.85,0,2.19,0.03,3.57,1.2,3.55,2.94-0.03,1.7-1.3,2.76-3.44,2.79q-4.32.045-8.63-.01c-2.37-.02-3.17-0.82-3.18-3.1-0.02-4.92,0-9.85.01-14.78a6.325,6.325,0,0,1,.09-1.38,2.819,2.819,0,0,1,3.12-2.49,2.681,2.681,0,0,1,2.62,2.96C2315.8,4998.83,2315.8,5003.09,2315.8,5007.65Zm0.5,19.16c-3.09-.44-6-0.77-8.88-1.29a3.085,3.085,0,0,1-2.74-3.84c0.42-1.71,1.76-2.42,3.91-2a37.731,37.731,0,0,0,16.65-.24c2.12-.52,3.78.47,4.15,2.33,0.32,1.61-.74,3.12-2.76,3.49C2323.16,5025.87,2319.66,5026.32,2316.3,5026.81Zm-22.7-25.89a5.437,5.437,0,0,1-5.49-5.6,5.6,5.6,0,0,1,5.48-5.49,5.766,5.766,0,0,1,5.67,5.57A5.62,5.62,0,0,1,2293.6,5000.92Zm39.82-11.24a5.6,5.6,0,0,1,5.58,5.58,5.681,5.681,0,0,1-5.55,5.46,5.492,5.492,0,0,1-5.59-5.53A5.4,5.4,0,0,1,2333.42,4989.68Zm-63.06,73.58c1.61,0,3-.04,4.38.02a2.887,2.887,0,0,1,2.96,2.85,2.658,2.658,0,0,1-2.72,2.86,78.866,78.866,0,0,1-7.99,0c-1.7-.09-2.57-1.17-2.56-2.94,0.03-4.12-.01-8.23.02-12.35a3.19,3.19,0,0,1,2.9-3.41,3.05,3.05,0,0,1,2.99,3.3C2270.4,5056.71,2270.36,5059.83,2270.36,5063.26Zm0.51,19.52c-2.89-.54-5.72-0.96-8.48-1.62a2.71,2.71,0,0,1-2.18-3.61c0.56-1.88,1.93-2.77,3.83-2.19a22.26,22.26,0,0,0,13.37.02c1.7-.51,2.86.29,3.43,1.89a2.8,2.8,0,0,1-1.75,3.88C2276.4,5081.85,2273.64,5082.25,2270.87,5082.78Zm16.17-22.36a5.081,5.081,0,1,1,5.13-4.99A5.049,5.049,0,0,1,2287.04,5060.42Zm-36.45-.77a4.956,4.956,0,0,1-5.11-4.96,5.046,5.046,0,0,1,10.09-.13A4.968,4.968,0,0,1,2250.59,5059.65Z" transform="translate(-2177 -4929)"/>
</svg>
