<svg xmlns="http://www.w3.org/2000/svg" width="81" height="120" viewBox="0 0 81 120">
  <metadata><?xpacket begin="﻿" id="W5M0MpCehiHzreSzNTczkc9d"?>
<x:xmpmeta xmlns:x="adobe:ns:meta/" x:xmptk="Adobe XMP Core 5.6-c138 79.159824, 2016/09/14-01:09:01        ">
   <rdf:RDF xmlns:rdf="http://www.w3.org/1999/02/22-rdf-syntax-ns#">
      <rdf:Description rdf:about=""/>
   </rdf:RDF>
</x:xmpmeta>
                                                                                                    
             
<?xpacket end="w"?></metadata>
<defs>
    <style>
      .cls-1 {
        fill-rule: evenodd;
        fill: #ffffff;
      }
    </style>
  </defs>
  <path id="fleche" class="cls-1" d="M1820.47,1833.8a114.5,114.5,0,0,0-19.66,25.62c-1.07-10.44-1.93-20.9-2.79-31.33-0.76-9.11-1.35-18.23-1.97-27.35q-0.465-6.84-.98-13.69c-0.33-4.5-.29-9.56-1.75-13.86a3.136,3.136,0,0,0-5.98,0c-1.3,4.35-1.07,9.36-1.15,13.86q-0.12,6.84-.05,13.69c0.1,9.33.44,18.68,0.83,28.01,0.58,14.15,1.66,28.26,2.71,42.37-2.6-4.54-5.42-8.98-8.29-13.37-6.29-9.66-12.94-20.05-21.26-28.11-4.57-4.44-13.03,1.44-9.15,7,6.44,9.23,14.25,17.53,20.97,26.58,3.36,4.54,6.53,9.21,9.75,13.85,2.7,3.89,5.74,10.37,10.32,12.29a3.706,3.706,0,0,0,1.18.27,6.737,6.737,0,0,0,10.47-3.26,144.315,144.315,0,0,1,25.66-43.79C1834.48,1836.56,1826.3,1828.1,1820.47,1833.8Z" transform="translate(-1749.97 -1771)"/>
</svg>
