<svg xmlns="http://www.w3.org/2000/svg" width="123.53" height="123.812" viewBox="0 0 123.53 123.812">
  <defs>
    <style>
      .cls-1 {
        fill: #fff;
        fill-rule: evenodd;
      }
    </style>
  </defs>
  <path id="flower" class="cls-1" d="M1812.4,692.287c-0.51,3.486-1,6.792-1.52,10.266-2.69-1.978-5.22-3.841-7.96-5.853-1.96,8.309-6.94,14.847-10.96,22.1-4.05-7.314-9.09-13.895-10.94-22.355-2.61,1.956-5.04,3.773-7.68,5.746-0.47-3.421-.92-6.632-1.4-10.033-7.09,4.585-15.14,5.908-23.15,8.092,2.26-7.891,3.29-15.914,8.13-22.847l-10.44-1.565c2.05-2.722,3.96-5.245,6.07-8.056-8.42-1.818-15.01-6.888-22.3-10.978,3.62-2.208,6.99-4.529,10.6-6.387s7.47-3.264,11.39-4.939q-2.55-3.411-5.5-7.373c3.42-.474,6.63-0.917,10.16-1.407-4.84-6.961-5.97-15.058-8.22-23.121,7.89,2.153,15.82,3.452,22.84,7.92,0.52-3.478,1.01-6.778,1.52-10.251,2.71,1.992,5.25,3.855,7.97,5.856,1.95-8.313,6.95-14.854,10.95-22.105,4.07,7.325,9.12,13.942,10.96,22.352,2.61-1.96,5.03-3.765,7.66-5.74q0.72,5.109,1.34,9.582c3.79-1.524,7.49-3.221,11.32-4.487s7.77-2.083,11.88-3.154c-2.19,7.864-3.35,15.833-7.96,22.861l10.39,1.54c-1.97,2.685-3.83,5.209-5.9,8.029,8.31,1.834,14.83,6.831,22.12,10.934-7.32,4.016-13.83,9.2-22.4,10.843,2.03,2.724,3.85,5.16,5.82,7.8l-10.16,1.418c4.88,7.033,6,15.152,8.21,23.153C1827.35,697.956,1819.45,696.619,1812.4,692.287Zm-24.07-27.668c0.49,7.233-.8,14.488,3.5,20.845,4.33-6.385,2.96-13.7,3.52-20.828,5.3,4.513,9.29,10.413,16.55,12.152-1.93-7.159-7.74-11.22-12.2-16.493,7.14-.593,14.44.777,20.89-3.536-6.47-4.262-13.77-2.946-20.9-3.524,4.51-5.286,10.29-9.352,12.21-16.5-7.29,1.761-11.27,7.732-16.58,12.159-0.49-7.207.81-14.464-3.49-20.822-4.33,6.385-2.97,13.7-3.52,20.83-5.31-4.515-9.29-10.414-16.55-12.154a21.018,21.018,0,0,0,5.11,8.926c2.28,2.507,4.66,4.924,7.17,7.566-7.23.571-14.52-.741-20.97,3.533,6.47,4.277,13.77,2.943,20.89,3.531-4.51,5.282-10.29,9.352-12.21,16.508C1779.03,675.027,1783.02,669.124,1788.33,664.619Zm3.49,45.794a47.259,47.259,0,0,0,7.23-16.314,1.594,1.594,0,0,0-.26-1.186c-1.19-1.462-2.44-2.868-3.76-4.395-1.04,1.707-2.07,3.39-3.18,5.206-1.23-1.974-2.36-3.8-3.51-5.657-1.26,1.565-2.42,2.948-3.5,4.386a1.893,1.893,0,0,0-.36,1.287A44.782,44.782,0,0,0,1791.82,710.413Zm-31.21-57.143c-1.5-1.19-2.79-2.308-4.19-3.273a2.833,2.833,0,0,0-1.92-.488c-5.75,1.063-10.83,3.692-15.67,6.875a3.08,3.08,0,0,0-.42.475c5.07,3.252,10.23,6,16.12,7.144a1.46,1.46,0,0,0,1.06-.222c1.51-1.2,2.98-2.462,4.57-3.793-1.75-1.069-3.45-2.111-5.25-3.21C1756.94,655.531,1758.74,654.418,1760.61,653.27Zm34.69-27.757c1.16-1.469,2.09-2.793,3.18-3.963a2.428,2.428,0,0,0,.61-2.5,47.5,47.5,0,0,0-6.78-15.262,4.548,4.548,0,0,1-.35-0.87,47.762,47.762,0,0,0-7.36,16.461,1.592,1.592,0,0,0,.32,1.161c1.18,1.421,2.41,2.791,3.72,4.282,1.03-1.662,2.07-3.356,3.17-5.13C1793.03,621.728,1794.13,623.554,1795.3,625.513Zm50.08,31.246c-5.24-3.275-10.36-6.117-16.25-7.232a1.435,1.435,0,0,0-1.05.243c-1.46,1.2-2.88,2.451-4.4,3.771,1.7,1.063,3.4,2.117,5.17,3.223-2,1.24-3.81,2.355-5.65,3.494,1.6,1.284,3.02,2.462,4.49,3.576a1.673,1.673,0,0,0,1.17.271C1834.85,663,1840.06,660.1,1845.38,656.759Zm-29.13-20.21c1.86-.121,3.42-0.148,4.95-0.362a2.5,2.5,0,0,0,1.6-.93,41.648,41.648,0,0,0,5.34-11.327c0.42-1.469.75-2.969,1.14-4.542a41.935,41.935,0,0,0-16.1,6.4,2.429,2.429,0,0,0-1.04,1.13c-0.3,1.761-.45,3.55-0.67,5.441l6.19-1.5C1817.16,632.886,1816.73,634.626,1816.25,636.549Zm-4.4,44.69c0.16,1.857.22,3.456,0.46,5.029a2.4,2.4,0,0,0,.93,1.585,64.961,64.961,0,0,0,7.25,3.709c2.75,1.115,5.66,1.862,8.78,2.86-1.43-6.249-3.39-11.8-6.96-16.667a1.524,1.524,0,0,0-.73-0.653c-1.8-.251-3.62-0.429-5.53-0.641,0.52,2.1,1,4.051,1.52,6.169Zm-45.9,1.458c0.51-2.068.94-3.806,1.4-5.705-1.74.112-3.35,0.139-4.92,0.354a2.509,2.509,0,0,0-1.59.947,42.5,42.5,0,0,0-5.43,11.6c-0.4,1.374-.67,2.784-1.03,4.309a43.517,43.517,0,0,0,15.99-6.4,2.528,2.528,0,0,0,1.14-1.22c0.32-1.755.45-3.545,0.66-5.422Zm5.68-50.442c-0.13-2-.22-3.746-0.38-5.482a1.514,1.514,0,0,0-.6-0.916,42.878,42.878,0,0,0-16.21-6.514c1.38,6.06,3.37,11.65,6.99,16.549a1.451,1.451,0,0,0,.78.572c1.72,0.254,3.45.443,5.26,0.665-0.51-2.114-.99-4.1-1.52-6.275Zm38.13,16.713c2.86,0.683,5.91,1.441,8.99,2.115a2.129,2.129,0,0,0,1.3-.431,31.525,31.525,0,0,0,9.38-9.105,3.717,3.717,0,0,0,.32-0.8c-4.73-.63-9.33-0.894-13.91.22a2.554,2.554,0,0,0-1.44.793C1812.78,644.173,1811.24,646.645,1809.76,648.968Zm-33.7-30.361c-0.84,5.023-1.03,9.76.23,14.458a2.861,2.861,0,0,0,1.11,1.359c2.13,1.518,4.31,2.974,6.47,4.444,0.14,0.091.32,0.117,0.16,0.062,0.74-2.981,1.48-5.883,2.15-8.8a2.43,2.43,0,0,0-.25-1.611C1783.5,624.476,1780.02,621.479,1776.06,618.607Zm31.51,76.294a34.311,34.311,0,0,0-.28-14.836,2.113,2.113,0,0,0-.94-0.976c-1.71-1.119-3.46-2.171-5.16-3.3a17.114,17.114,0,0,1-1.61-1.327c-0.66,2.84-1.24,5.644-2.01,8.393a2.534,2.534,0,0,0,.3,2.292A37.891,37.891,0,0,0,1807.57,694.9Zm-53.83-22.332a42.125,42.125,0,0,0,12.36.256c1.91-.265,3.31-0.876,4.03-2.857a13.045,13.045,0,0,1,2.01-3.039c0.65-.881,1.39-1.7,1.96-2.376-3.11-.757-6.2-1.517-9.29-2.245a1.221,1.221,0,0,0-.81.18A32.258,32.258,0,0,0,1753.74,672.569Zm75.58-.211a31.029,31.029,0,0,0-10.4-9.479,2.277,2.277,0,0,0-1.36,0c-2.24.41-4.47,0.858-6.71,1.29-0.47.091-.95,0.167-1.28,0.225,1.55,2.326,2.98,4.524,4.46,6.682a2.491,2.491,0,0,0,1.2.907A29.181,29.181,0,0,0,1829.32,672.358Zm-53.12,21.98a40.652,40.652,0,0,0,8.49-8.409,4.683,4.683,0,0,0,.85-4.811,43.908,43.908,0,0,1-1.28-6.465c-2.23,1.443-4.51,2.913-6.77,4.411a1.531,1.531,0,0,0-.59.765A30.944,30.944,0,0,0,1776.2,694.338ZM1754.32,641.1a32.862,32.862,0,0,0,10.52,9.772,1.257,1.257,0,0,0,.82.064c2.82-.608,5.64-1.239,8.35-1.84-1.31-1.92-2.8-3.946-4.1-6.085a2.952,2.952,0,0,0-1.97-1.487A34.67,34.67,0,0,0,1754.32,641.1Zm45.31-2.321c2.04-1.347,4.23-2.76,6.38-4.239a2.384,2.384,0,0,0,.86-1.23,30.179,30.179,0,0,0,.85-12.434c-0.07-.5-0.17-1-0.29-1.693-3.83,2.977-7.15,6.082-9.4,10.166a2.142,2.142,0,0,0-.22,1.359C1798.39,633.453,1799.04,636.189,1799.63,638.774Z" transform="translate(-1730.25 -595)"/>
</svg>
