<svg xmlns="http://www.w3.org/2000/svg" xmlns:xlink="http://www.w3.org/1999/xlink" width="285" height="285" viewBox="0 0 285 285">
  <defs>
    <style>
      .cls-1 {
        fill: #323232;
        fill-rule: evenodd;
        filter: url(#filter);
      }
    </style>
    <filter id="filter" x="580" y="8420" width="285" height="285" filterUnits="userSpaceOnUse">
      <feOffset result="offset" dx="1" dy="1.732" in="SourceAlpha"/>
      <feGaussianBlur result="blur" stdDeviation="9"/>
      <feFlood result="flood" flood-opacity="0.15"/>
      <feComposite result="composite" operator="in" in2="blur"/>
      <feBlend result="blend" in="SourceGraphic"/>
    </filter>
  </defs>
  <path id="Instagram" class="cls-1" d="M720.448,8549.84a10.7,10.7,0,1,0,10.7,10.7A10.709,10.709,0,0,0,720.448,8549.84Zm13.442-15.53H707.006a13.081,13.081,0,0,0-9.479,3.46c-2.283,2.27-3.489,5.56-3.489,9.51v26.73a13.067,13.067,0,0,0,3.64,9.67,13.25,13.25,0,0,0,9.477,3.45h26.586c3.97,0,7.282-1.18,9.578-3.43,2.316-2.26,3.539-5.56,3.539-9.54v-26.88A12.112,12.112,0,0,0,733.89,8534.31Zm-13.442,42.88a16.655,16.655,0,1,1,16.655-16.65A16.672,16.672,0,0,1,720.448,8577.19Zm17.282-29.93a3.785,3.785,0,1,1,3.782-3.78A3.786,3.786,0,0,1,737.73,8547.26Zm-16.754-47.23A59.97,59.97,0,1,0,780.949,8560,59.973,59.973,0,0,0,720.976,8500.03Zm31.842,74.13c0,5.63-1.846,10.4-5.336,13.81-3.432,3.35-8.184,5.12-13.741,5.12H707.155a19.078,19.078,0,0,1-13.628-5.13c-3.564-3.47-5.448-8.29-5.448-13.95v-26.73c0-11.32,7.606-18.93,18.927-18.93H733.89a18.038,18.038,0,0,1,18.928,18.93v26.88Z" transform="translate(-580 -8420)"/>
</svg>
