<svg xmlns="http://www.w3.org/2000/svg" width="46" height="46" viewBox="0 0 46 46">
  <defs>
    <style>
      .cls-1 {
        fill: #3f3e3e;
        fill-rule: evenodd;
      }
    </style>
  </defs>
  <path id="loupe" class="cls-1" d="M2902.29,135.839a13.263,13.263,0,0,1,4.49.783,13.457,13.457,0,0,1,7.68,6.959,13.613,13.613,0,0,1-12.17,19.461,13.479,13.479,0,0,1-12.16-7.742,13.6,13.6,0,0,1,12.16-19.461h0m0-4.842a18.46,18.46,0,0,0-6.09,35.828,18.091,18.091,0,0,0,6.09,1.059,18.3,18.3,0,0,0,17.24-12.3,18.487,18.487,0,0,0-11.15-23.53,18.042,18.042,0,0,0-6.09-1.059h0Zm25.3,46.008a2.4,2.4,0,0,1-1.7-.709l-9.42-9.5a2.45,2.45,0,0,1,0-3.424,2.393,2.393,0,0,1,3.4,0l9.42,9.5a2.431,2.431,0,0,1,0,3.424A2.38,2.38,0,0,1,2927.59,177.005Z" transform="translate(-2884 -131)"/>
</svg>
