<svg xmlns="http://www.w3.org/2000/svg" viewBox="0 0 24.97 31"><title>panier</title><g id="Calque_2" data-name="Calque 2"><g id="Calque_1-2" data-name="Calque 1"><path d="M0,8.47H4.17v2H2.1V11q0,8.14,0,16.28A1.4,1.4,0,0,0,3.67,28.9H21.26c1.12,0,1.62-.51,1.62-1.62q0-8.12,0-16.23v-.52H20.79V8.47H25V28c0,.11-.07.22-.1.33a3.41,3.41,0,0,1-1.93,2.32A9.56,9.56,0,0,1,22,31H3l-.48-.16A3.4,3.4,0,0,1,.17,28.6L0,28.12Z"/><path d="M13.27,0l.93.21A7.09,7.09,0,0,1,19.55,7c0,1.54,0,3.08,0,4.63a.59.59,0,0,0,.28.57,2.21,2.21,0,0,1,.83,2.47,2.25,2.25,0,0,1-4.28.07,2.2,2.2,0,0,1,.74-2.5.79.79,0,0,0,.35-.76c0-1.5,0-3,0-4.49A5,5,0,0,0,7.74,5.61a5.92,5.92,0,0,0-.22,1.55c0,1.5,0,3,0,4.49a.57.57,0,0,0,.27.53,2.19,2.19,0,0,1,.82,2.51,2.24,2.24,0,0,1-4.26,0,2.2,2.2,0,0,1,.81-2.52.6.6,0,0,0,.28-.57c0-1.43,0-2.85,0-4.28A7,7,0,0,1,11.55.07.69.69,0,0,0,11.7,0ZM18.5,14.58a.59.59,0,1,0,0-1.18.59.59,0,0,0-.61.6A.6.6,0,0,0,18.5,14.58Zm-12,0a.59.59,0,1,0-.6-.56A.61.61,0,0,0,6.47,14.58Z"/><path d="M16.2,8.46v2H8.67v-2Z"/></g></g></svg>