<svg xmlns="http://www.w3.org/2000/svg" width="52.969" height="51" viewBox="0 0 52.969 51">
  <defs>
    <style>
      .cls-1 {
        fill: #21ada4;
        fill-rule: evenodd;
      }
    </style>
  </defs>
  <path id="panneau_circuits" class="cls-1" d="M988.621,1595.46H1005.7v-11.47H988.621l-6.695,5.74m24.534,7.23H988.341a0.739,0.739,0,0,1-.491-0.18l-7.571-6.48a0.762,0.762,0,0,1-.262-0.57,0.747,0.747,0,0,1,.262-0.57l7.571-6.49a0.794,0.794,0,0,1,.491-0.18h18.119a0.755,0.755,0,0,1,.75.75v12.97a0.749,0.749,0,0,1-.75.75m0.86,6.12h17.08l6.7-5.74-6.7-5.73h-17.08m17.36,12.97h-18.12a0.755,0.755,0,0,1-.75-0.75v-12.97a0.749,0.749,0,0,1,.75-0.75h18.12a0.742,0.742,0,0,1,.49.18l7.57,6.48a0.757,0.757,0,0,1,.27.57,0.741,0.741,0,0,1-.27.57l-7.57,6.49a0.742,0.742,0,0,1-.49.18m-28.135,17.93H1017.1c-0.74-2.51-5.15-4.52-10.28-4.52s-9.532,2.01-10.275,4.52m21.425,1.5H995.681a0.749,0.749,0,0,1-.754-0.75c0-3.79,5.223-6.77,11.893-6.77,6.6,0,11.79,2.91,11.9,6.66,0,0.03.01,0.07,0.01,0.11a0.751,0.751,0,0,1-.76.75m-11.41-6.37a0.755,0.755,0,0,1-.75-0.75v-37.81a0.755,0.755,0,0,1,1.51,0v37.81a0.758,0.758,0,0,1-.76.75m-0.07-43.14a1.68,1.68,0,1,0,1.68,1.68,1.686,1.686,0,0,0-1.68-1.68m0,4.86a3.18,3.18,0,1,1,3.19-3.18,3.192,3.192,0,0,1-3.19,3.18m16.14,16.79h-11.18a0.75,0.75,0,1,1,0-1.5h11.18a0.75,0.75,0,1,1,0,1.5m-0.16,3.29h-11.18a0.75,0.75,0,0,1,0-1.5h11.18a0.75,0.75,0,1,1,0,1.5M1002,1588.62H990.816a0.75,0.75,0,1,1,0-1.5H1002a0.75,0.75,0,0,1,0,1.5" transform="translate(-980.031 -1573)"/>
</svg>
