<svg xmlns="http://www.w3.org/2000/svg" width="194.03" height="93.97" viewBox="0 0 194.03 93.97">
  <defs>
    <style>
      .cls-1 {
        fill: #d4925b;
        fill-rule: evenodd;
      }
    </style>
  </defs>
  <path id="voiture" class="cls-1" d="M1304.87,6273.94v-11.47c0-3.27.58-3.83,3.94-3.83,6.43-.01,12.87.05,19.3-0.06a4.894,4.894,0,0,0,3.04-1.27q13.395-13.26,26.63-26.69a5.189,5.189,0,0,1,3.99-1.67q25.215,0.06,50.42,0a6.145,6.145,0,0,1,4.23,1.64q16.35,13.815,32.82,27.47a4.624,4.624,0,0,0,2.1.91c10.71,1.85,21.43,3.7,32.16,5.46a15.76,15.76,0,0,1,8.76,4.95c5.59,5.72,7.88,12.61,5.75,20.45-2.12,7.8-7.4,12.73-15.23,14.68a30.221,30.221,0,0,1-6.25.55,1.611,1.611,0,0,0-1.87,1.46,20.63,20.63,0,0,1-18.85,16.34c-8.92.7-18.39-6.58-20.4-15.88-0.36-1.65-1.02-1.91-2.48-1.91q-31.125.06-62.25,0c-1.42,0-2.14.19-2.5,1.88a20,20,0,0,1-39.13.18c-0.4-1.84-1.18-2.12-2.76-2.05-9.64.43-18.69-6.19-20.8-15.59-0.73-3.22-.47-6.67-0.6-10.01C1304.81,6277.63,1304.87,6275.79,1304.87,6273.94Zm4.81-10.39c0,7.82-.16,15.39.07,22.94a13.76,13.76,0,0,0,5.1,10.12c3.34,2.87,7.27,3.64,11.54,3.61,1.58-.02,2.24-0.37,2.59-2.03,1.89-8.95,10.71-15.96,19.79-15.89,8.89,0.08,17.55,7.04,19.44,15.84,0.35,1.65.93,2.08,2.55,2.07q31.02-.075,62.03,0c1.59,0.01,2.22-.37,2.58-2.04,2.36-10.99,14.12-18.2,24.82-15.03,7.67,2.27,12.54,7.52,14.54,15.39a2.341,2.341,0,0,0,1.26,1.58c13.5,1.33,19.73-9.38,17.57-19.08a15.622,15.622,0,0,0-13.23-12.27c-5.9-.9-11.76-2-17.64-2.93-6.4-1.01-12.73-2.28-19.29-2.26-38.4.1-76.81,0.01-115.21-.02h-18.51Zm77.81-5.05v-24.42a3.411,3.411,0,0,0-.66-0.16c-8.13-.01-16.27-0.05-24.4.02a3.558,3.558,0,0,0-2.15,1.1q-11.115,11.055-22.15,22.19a12.659,12.659,0,0,0-.99,1.27h50.35Zm54.21-.05c0.12-.16.24-0.31,0.36-0.47a3.167,3.167,0,0,1-.88-0.38c-9.15-7.62-18.26-15.27-27.44-22.84a4.51,4.51,0,0,0-2.68-.83c-5.58-.07-11.16-0.04-16.74-0.03-0.63,0-1.25.07-1.86,0.11v24.44h49.24Zm-93.14,28.92a15.3,15.3,0,1,0-.03,30.6c8.81,0.02,15.5-6.57,15.43-15.21C1363.89,6293.85,1357.4,6287.37,1348.56,6287.37Zm106.38,30.6c8.73,0.02,15.45-6.42,15.39-15.02-0.08-10.26-7.7-15.57-15.19-15.64-7.67-.07-15.35,5.29-15.49,15.54C1439.53,6311.44,1446.22,6317.95,1454.94,6317.97Zm-51.37-39.67c-1.97,0-3.94-.02-5.91.01a2.21,2.21,0,0,1-2.48-2.42,2.243,2.243,0,0,1,2.56-2.34c3.87,0.05,7.74.06,11.62,0a2.368,2.368,0,0,1,2.62,2.33c0.18,1.37-1.04,2.39-2.7,2.42C1407.37,6278.32,1405.47,6278.3,1403.57,6278.3Z" transform="translate(-1304.75 -6228.94)"/>
</svg>
