<svg xmlns="http://www.w3.org/2000/svg" xmlns:xlink="http://www.w3.org/1999/xlink" width="286" height="286" viewBox="0 0 286 286">
  <defs>
    <style>
      .cls-1 {
        fill: #323232;
        fill-rule: evenodd;
        filter: url(#filter);
      }
    </style>
    <filter id="filter" x="2719" y="8420" width="286" height="286" filterUnits="userSpaceOnUse">
      <feOffset result="offset" dx="1" dy="1.732" in="SourceAlpha"/>
      <feGaussianBlur result="blur" stdDeviation="9"/>
      <feFlood result="flood" flood-opacity="0.15"/>
      <feComposite result="composite" operator="in" in2="blur"/>
      <feBlend result="blend" in="SourceGraphic"/>
    </filter>
  </defs>
  <path id="YouTube" class="cls-1" d="M2834.88,8565.55h4.34v21.59h4.2v-21.59h4.35v-3.67h-12.89v3.67Zm25.78-17.93a1.937,1.937,0,0,0,1.36-.47,1.725,1.725,0,0,0,.5-1.3v-11.18a1.342,1.342,0,0,0-.51-1.09,2.053,2.053,0,0,0-1.35-.41,1.847,1.847,0,0,0-1.25.41,1.4,1.4,0,0,0-.47,1.09v11.18a1.755,1.755,0,0,0,.45,1.3A1.668,1.668,0,0,0,2860.66,8547.62Zm9.26,20.65a3.758,3.758,0,0,0-1.72.44,5.911,5.911,0,0,0-1.59,1.3v-8.13h-3.77v25.26h3.77v-1.43a4.76,4.76,0,0,0,1.59,1.26,4.441,4.441,0,0,0,1.95.41,3.107,3.107,0,0,0,2.53-1.05,4.686,4.686,0,0,0,.88-3.04v-10.34a5.49,5.49,0,0,0-.94-3.48A3.21,3.21,0,0,0,2869.92,8568.27Zm-0.21,14.51a1.989,1.989,0,0,1-.32,1.28,1.177,1.177,0,0,1-1,.39,2.3,2.3,0,0,1-.9-0.19,2.977,2.977,0,0,1-.88-0.66v-11.61a2.7,2.7,0,0,1,.76-0.57,1.763,1.763,0,0,1,.79-0.19,1.424,1.424,0,0,1,1.16.48,2.227,2.227,0,0,1,.39,1.44v9.63Zm-13.4-.12a5.4,5.4,0,0,1-1.15,1,2.14,2.14,0,0,1-1.04.39,0.911,0.911,0,0,1-.76-0.3,1.557,1.557,0,0,1-.23-0.95v-14.3h-3.73v15.58a3.97,3.97,0,0,0,.66,2.5,2.3,2.3,0,0,0,1.94.83,4.513,4.513,0,0,0,2.16-.59,8.221,8.221,0,0,0,2.15-1.73v2.05h3.73V8568.5h-3.73v14.16Zm4.19-82.17a60.01,60.01,0,1,0,60.01,60.01A60.013,60.013,0,0,0,2860.5,8500.49Zm9.7,29.64h4.18v15.74a1.676,1.676,0,0,0,.27,1.05,1.039,1.039,0,0,0,.86.33,2.442,2.442,0,0,0,1.17-.43,5.6,5.6,0,0,0,1.29-1.11v-15.58h4.2v20.53h-4.2v-2.27a8.878,8.878,0,0,1-2.41,1.91,5.355,5.355,0,0,1-2.43.66,2.629,2.629,0,0,1-2.2-.93,4.283,4.283,0,0,1-.73-2.75v-17.15Zm-15.58,4.69a4.744,4.744,0,0,1,1.69-3.8,6.962,6.962,0,0,1,4.56-1.41,6.206,6.206,0,0,1,4.27,1.49,4.935,4.935,0,0,1,1.65,3.85v10.6a5.341,5.341,0,0,1-1.62,4.13,6.438,6.438,0,0,1-4.49,1.49,6.189,6.189,0,0,1-4.41-1.54,5.438,5.438,0,0,1-1.65-4.17v-10.64Zm-11.42-11.99,3.07,11.12h0.29l2.92-11.12h4.8l-5.49,16.28v11.55h-4.73v-11.03l-5.62-16.8h4.76Zm54.93,58.57a13.454,13.454,0,0,1-13.45,13.45h-46.73a13.454,13.454,0,0,1-13.45-13.45v-10.81a13.456,13.456,0,0,1,13.45-13.46h46.73a13.456,13.456,0,0,1,13.45,13.46v10.81Zm-16.96-13.36a5.569,5.569,0,0,0-4.08,1.53,5.206,5.206,0,0,0-1.59,3.94v8.37a5.971,5.971,0,0,0,1.44,4.23,5.138,5.138,0,0,0,3.95,1.54,5.579,5.579,0,0,0,4.18-1.44,5.984,5.984,0,0,0,1.4-4.33v-0.95h-3.83v0.85a4,4,0,0,1-.37,2.12,1.553,1.553,0,0,1-1.3.48,1.389,1.389,0,0,1-1.26-.56,4.1,4.1,0,0,1-.36-2.04v-3.51h7.12v-4.76a5.59,5.59,0,0,0-1.37-4.06A5.25,5.25,0,0,0,2881.17,8568.04Zm1.47,7.33h-3.29v-1.89a2.76,2.76,0,0,1,.38-1.67,1.5,1.5,0,0,1,1.28-.51,1.47,1.47,0,0,1,1.24.51,2.752,2.752,0,0,1,.39,1.67v1.89Z" transform="translate(-2719 -8420)"/>
</svg>
